<svg width="438" height="178" viewBox="0 0 438 178" fill="none" xmlns="http://www.w3.org/2000/svg">
<path d="M214.325 85V37.568H197.77V31.1H238.195V37.568H221.64V85H214.325ZM245.119 85V44.96H251.818V53.661C252.485 51.967 253.384 50.4013 254.513 48.964C255.642 47.4753 257.054 46.2947 258.748 45.422C260.442 44.498 262.418 44.036 264.677 44.036C265.447 44.036 266.217 44.0873 266.987 44.19C267.757 44.2413 268.399 44.344 268.912 44.498L266.833 51.659C265.858 51.2483 264.703 51.043 263.368 51.043C261.469 51.043 259.646 51.582 257.901 52.66C256.207 53.738 254.795 55.4063 253.666 57.665C252.588 59.9237 252.049 62.7983 252.049 66.289V85H245.119ZM288.866 85.924C285.529 85.924 282.5 85.077 279.78 83.383C277.059 81.689 274.877 79.302 273.235 76.222C271.643 73.0907 270.848 69.4203 270.848 65.211C270.848 61.207 271.643 57.6137 273.235 54.431C274.877 51.2483 277.11 48.733 279.934 46.885C282.808 44.9857 286.094 44.036 289.79 44.036C292.1 44.036 294.179 44.4467 296.027 45.268C297.926 46.038 299.569 47.0133 300.955 48.194V44.96H307.269V75.298C307.269 77.2487 307.731 78.532 308.655 79.148C309.63 79.7127 310.682 79.995 311.812 79.995L310.349 85.385C305.421 85.385 302.443 83.383 301.417 79.379C300.236 81.0217 298.619 82.536 296.566 83.922C294.564 85.2567 291.997 85.924 288.866 85.924ZM290.406 79.764C292.356 79.764 294.204 79.302 295.95 78.378C297.695 77.4027 299.158 76.1963 300.339 74.759V53.276C298.953 52.3007 297.413 51.5307 295.719 50.966C294.076 50.35 292.331 50.042 290.483 50.042C288.019 50.042 285.837 50.6837 283.938 51.967C282.09 53.199 280.627 54.9443 279.549 57.203C278.471 59.4103 277.932 62.0027 277.932 64.98C277.932 67.8547 278.471 70.4213 279.549 72.68C280.627 74.8873 282.115 76.6327 284.015 77.916C285.914 79.148 288.044 79.764 290.406 79.764ZM330.265 85L314.172 46.808L320.486 44.19L334.115 77.146L347.744 44.19L353.673 46.808L337.503 85H330.265ZM375.131 85.924C369.382 85.924 364.813 84.1017 361.425 80.457C358.088 76.761 356.42 71.602 356.42 64.98C356.42 60.976 357.164 57.4083 358.653 54.277C360.193 51.0943 362.323 48.6047 365.044 46.808C367.765 44.96 370.922 44.036 374.515 44.036C378.365 44.036 381.548 44.883 384.063 46.577C386.63 48.2197 388.555 50.4527 389.838 53.276C391.121 56.0993 391.763 59.205 391.763 62.593C391.763 64.3897 391.686 66.135 391.532 67.829H363.504C363.966 71.5763 365.275 74.5023 367.431 76.607C369.587 78.7117 372.436 79.764 375.978 79.764C378.288 79.764 380.367 79.533 382.215 79.071C384.063 78.5577 385.834 77.916 387.528 77.146L389.145 83.075C387.297 83.8963 385.218 84.5637 382.908 85.077C380.598 85.6417 378.006 85.924 375.131 85.924ZM363.427 62.208H385.372C385.372 58.3067 384.397 55.3037 382.446 53.199C380.495 51.0943 377.8 50.042 374.361 50.042C371.384 50.042 368.92 51.0943 366.969 53.199C365.018 55.2523 363.838 58.2553 363.427 62.208ZM413.165 85.924C410.804 85.924 408.673 85.4877 406.774 84.615C404.875 83.691 403.36 82.228 402.231 80.226C401.153 78.224 400.614 75.6317 400.614 72.449V28.02H407.544V71.756C407.544 74.528 408.109 76.5813 409.238 77.916C410.419 79.2507 412.036 79.918 414.089 79.918C415.064 79.918 416.014 79.8153 416.938 79.61C417.913 79.3533 418.735 79.071 419.402 78.763L421.096 84.384C420.172 84.7947 419.017 85.154 417.631 85.462C416.296 85.77 414.808 85.924 413.165 85.924ZM219.484 160.616C216.353 160.616 213.375 160.539 210.552 160.385C207.78 160.231 205.573 160.051 203.93 159.846V106.254C205.727 106.049 207.96 105.869 210.629 105.715C213.298 105.561 216.353 105.484 219.792 105.484C226.363 105.484 231.419 106.742 234.961 109.257C238.503 111.721 240.274 115.083 240.274 119.344C240.274 122.167 239.504 124.58 237.964 126.582C236.475 128.533 234.294 130.15 231.419 131.433C234.91 132.665 237.553 134.385 239.35 136.592C241.147 138.748 242.045 141.417 242.045 144.6C242.045 149.477 240.12 153.378 236.27 156.304C232.42 159.179 226.825 160.616 219.484 160.616ZM211.245 129.354H219.715C223.77 129.354 226.979 128.507 229.34 126.813C231.753 125.119 232.959 122.937 232.959 120.268C232.959 117.393 231.778 115.212 229.417 113.723C227.056 112.183 223.822 111.413 219.715 111.413C218.021 111.413 216.481 111.464 215.095 111.567C213.709 111.618 212.426 111.695 211.245 111.798V129.354ZM220.023 154.533C224.592 154.533 228.159 153.712 230.726 152.069C233.293 150.426 234.576 148.039 234.576 144.908C234.576 141.828 233.318 139.415 230.803 137.67C228.288 135.925 224.694 135.052 220.023 135.052H211.245V154.071C213.966 154.379 216.892 154.533 220.023 154.533ZM264.751 160.924C262.441 160.924 260.259 160.436 258.206 159.461C256.153 158.486 254.484 156.92 253.201 154.764C251.918 152.557 251.276 149.631 251.276 145.986V119.96H258.206V145.062C258.206 148.193 258.873 150.606 260.208 152.3C261.543 153.943 263.493 154.764 266.06 154.764C268.165 154.764 270.192 154.353 272.143 153.532C274.145 152.659 275.916 151.504 277.456 150.067V119.96H284.386V149.605C284.386 151.812 284.848 153.275 285.772 153.994C286.747 154.661 287.8 154.995 288.929 154.995L287.466 160.385C282.692 160.385 279.74 158.486 278.611 154.687C276.814 156.535 274.735 158.049 272.374 159.23C270.013 160.359 267.472 160.924 264.751 160.924ZM312.549 160.924C309.263 160.924 306.26 160.077 303.54 158.383C300.819 156.689 298.663 154.302 297.072 151.222C295.48 148.091 294.685 144.42 294.685 140.211C294.685 136.156 295.48 132.537 297.072 129.354C298.714 126.171 300.87 123.656 303.54 121.808C306.26 119.96 309.238 119.036 312.472 119.036C315.141 119.036 317.425 119.575 319.325 120.653C321.275 121.731 322.79 122.835 323.868 123.964V103.02H330.798V150.298C330.798 152.249 331.26 153.532 332.184 154.148C333.159 154.713 334.211 154.995 335.341 154.995L333.878 160.385C329.001 160.385 326.024 158.434 324.946 154.533C323.816 156.124 322.225 157.587 320.172 158.922C318.17 160.257 315.629 160.924 312.549 160.924ZM314.089 154.764C315.988 154.764 317.785 154.328 319.479 153.455C321.224 152.531 322.687 151.35 323.868 149.913V130.047C322.892 128.815 321.532 127.686 319.787 126.659C318.041 125.581 316.116 125.042 314.012 125.042C311.548 125.042 309.392 125.709 307.544 127.044C305.696 128.379 304.258 130.175 303.232 132.434C302.256 134.641 301.769 137.157 301.769 139.98C301.769 142.803 302.308 145.344 303.386 147.603C304.464 149.81 305.927 151.556 307.775 152.839C309.674 154.122 311.779 154.764 314.089 154.764ZM359.019 160.924C355.734 160.924 352.731 160.077 350.01 158.383C347.29 156.689 345.134 154.302 343.542 151.222C341.951 148.091 341.155 144.42 341.155 140.211C341.155 136.156 341.951 132.537 343.542 129.354C345.185 126.171 347.341 123.656 350.01 121.808C352.731 119.96 355.708 119.036 358.942 119.036C361.612 119.036 363.896 119.575 365.795 120.653C367.746 121.731 369.26 122.835 370.338 123.964V103.02H377.268V150.298C377.268 152.249 377.73 153.532 378.654 154.148C379.63 154.713 380.682 154.995 381.811 154.995L380.348 160.385C375.472 160.385 372.494 158.434 371.416 154.533C370.287 156.124 368.696 157.587 366.642 158.922C364.64 160.257 362.099 160.924 359.019 160.924ZM360.559 154.764C362.459 154.764 364.255 154.328 365.949 153.455C367.695 152.531 369.158 151.35 370.338 149.913V130.047C369.363 128.815 368.003 127.686 366.257 126.659C364.512 125.581 362.587 125.042 360.482 125.042C358.018 125.042 355.862 125.709 354.014 127.044C352.166 128.379 350.729 130.175 349.702 132.434C348.727 134.641 348.239 137.157 348.239 139.98C348.239 142.803 348.778 145.344 349.856 147.603C350.934 149.81 352.397 151.556 354.245 152.839C356.145 154.122 358.249 154.764 360.559 154.764ZM390.57 177.864C389.03 177.864 387.67 177.71 386.489 177.402C385.36 177.094 384.462 176.735 383.794 176.324L385.334 170.549C385.95 170.908 386.72 171.216 387.644 171.473C388.568 171.73 389.595 171.858 390.724 171.858C392.88 171.858 394.805 171.165 396.499 169.779C398.193 168.393 399.81 165.672 401.35 161.617L403.121 156.997H399.425L383.794 121.808L389.954 119.036L404.892 152.377L416.519 119.344L422.91 121.808L408.203 162.002C406.715 166.109 405.098 169.317 403.352 171.627C401.607 173.937 399.682 175.554 397.577 176.478C395.473 177.402 393.137 177.864 390.57 177.864Z" fill="white"/>
<path fill-rule="evenodd" clip-rule="evenodd" d="M148.75 26.646H157.5C167.125 26.646 175 34.521 175 44.146V140.396C175 150.021 167.125 157.896 157.5 157.896H148.75V26.646ZM0 140.396V44.146C0 34.521 7.86625 26.646 17.5 26.646H26.25V157.896H17.5C7.86625 157.896 0 150.021 0 140.396ZM117.479 8.02312C117.7 8.12593 117.915 8.22622 118.125 8.32348V26.646H140V157.896H35V26.646H56.875V8.32348C57.2001 8.17271 57.5376 8.01471 57.888 7.85081C63.9598 5.01058 73.8253 0.395966 87.3337 0.395966C101.094 0.395966 111.418 5.2016 117.479 8.02312ZM70 26.646H105V14.956C100.336 12.9347 95.2262 10.8872 87.3337 10.8872C79.4465 10.8872 74.6895 12.9362 70.0249 14.9452L70 14.956V26.646ZM68.792 48.9977C68.792 53.1368 64.9608 56.4922 60.2348 56.4922C55.509 56.4922 51.6778 53.1368 51.6778 48.9977C51.6778 44.8588 55.509 41.5033 60.2348 41.5033C64.9608 41.5033 68.792 44.8588 68.792 48.9977ZM115.436 56.4922C120.162 56.4922 123.993 53.1368 123.993 48.9977C123.993 44.8588 120.162 41.5033 115.436 41.5033C110.71 41.5033 106.879 44.8588 106.879 48.9977C106.879 53.1368 110.71 56.4922 115.436 56.4922ZM71.5198 70.8476C70.8612 69.6191 69.3313 69.157 68.1026 69.8158C66.8741 70.4744 66.4122 72.0043 67.0708 73.2328C69.1597 77.1291 71.9926 80.1443 75.5886 82.1673C79.1724 84.1835 83.372 85.1348 88.0873 85.1348C92.8025 85.1348 97.0022 84.1835 100.586 82.1673C104.182 80.1443 107.015 77.1291 109.104 73.2328C109.762 72.0043 109.3 70.4744 108.072 69.8158C106.843 69.157 105.313 69.6191 104.655 70.8476C102.966 73.9966 100.779 76.2667 98.1107 77.7677C95.4305 79.2754 92.1227 80.0868 88.0873 80.0868C84.0518 80.0868 80.744 79.2754 78.0638 77.7677C75.3957 76.2667 73.2081 73.9966 71.5198 70.8476Z" fill="white"/>
</svg>
