<svg width="161" height="87" viewBox="0 0 161 87" fill="none" xmlns="http://www.w3.org/2000/svg">
<circle cx="117.148" cy="43.7007" r="41.7534" stroke="#4A9D93" stroke-width="3"/>
<path d="M145.984 32.5951C136.372 24.0512 108.818 12.0898 75.4968 32.5951C42.1757 53.1004 12.4857 41.139 1.80591 32.5951" stroke="#4A9D93" stroke-width="3"/>
<path d="M145.984 43.809C136.372 35.2651 108.818 23.3037 75.4968 43.809C42.1757 64.3143 12.4857 52.3528 1.80591 43.809" stroke="#4A9D93" stroke-width="3"/>
<path d="M145.984 55.0227C136.372 46.4788 108.818 34.5174 75.4968 55.0227C42.1757 75.528 12.4857 63.5666 1.80591 55.0227" stroke="#4A9D93" stroke-width="3"/>
<path d="M145.183 66.2366C135.571 57.6927 108.017 45.7313 74.6958 66.2366C41.3747 86.7419 11.6847 74.7805 1.00488 66.2366" stroke="#4A9D93" stroke-width="3"/>
</svg>
