<svg width="104" height="104" viewBox="0 0 104 104" fill="none" xmlns="http://www.w3.org/2000/svg">
<path fill-rule="evenodd" clip-rule="evenodd" d="M88.4 21.1839H93.6C99.32 21.1839 104 25.8639 104 31.5839V88.7839C104 94.5039 99.32 99.1839 93.6 99.1839H88.4V21.1839ZM0 88.7839V31.5839C0 25.8639 4.6748 21.1839 10.4 21.1839H15.6V99.1839H10.4C4.6748 99.1839 0 94.5039 0 88.7839ZM69.8161 10.1166C69.9474 10.1777 70.0754 10.2373 70.2 10.2951V21.1839H83.2V99.1839H20.8V21.1839H33.8V10.2951C33.9932 10.2055 34.1938 10.1116 34.402 10.0142L34.4027 10.0139C38.0111 8.32599 43.8733 5.58389 51.9012 5.58389C60.079 5.58389 66.2141 8.43981 69.8161 10.1166ZM41.6 21.1839H62.4V14.2367C59.6284 13.0355 56.5916 11.8187 51.9012 11.8187C47.2139 11.8187 44.3869 13.0364 41.6148 14.2303L41.6 14.2367V21.1839ZM40.8821 34.4672C40.8821 36.927 38.6053 38.9211 35.7967 38.9211C32.9882 38.9211 30.7114 36.927 30.7114 34.4672C30.7114 32.0075 32.9882 30.0134 35.7967 30.0134C38.6053 30.0134 40.8821 32.0075 40.8821 34.4672ZM68.6021 38.9211C71.4107 38.9211 73.6874 36.927 73.6874 34.4672C73.6874 32.0075 71.4107 30.0134 68.6021 30.0134C65.7936 30.0134 63.5168 32.0075 63.5168 34.4672C63.5168 36.927 65.7936 38.9211 68.6021 38.9211ZM42.5032 47.4523C42.1118 46.7222 41.2026 46.4476 40.4724 46.8391C39.7423 47.2305 39.4678 48.1397 39.8592 48.8698C41.1006 51.1853 42.7842 52.9772 44.9212 54.1794C47.051 55.3776 49.5468 55.943 52.349 55.943C55.1512 55.943 57.647 55.3776 59.7768 54.1794C61.9138 52.9772 63.5974 51.1853 64.8388 48.8698C65.2302 48.1397 64.9557 47.2305 64.2255 46.8391C63.4954 46.4476 62.5862 46.7222 62.1948 47.4523C61.1915 49.3237 59.8913 50.6728 58.3058 51.5648C56.713 52.4608 54.7472 52.943 52.349 52.943C49.9508 52.943 47.985 52.4608 46.3922 51.5648C44.8066 50.6728 43.5065 49.3237 42.5032 47.4523Z" fill="#90AB86"/>
</svg>
